<?xml version="1.0" encoding="UTF-8"?>
<svg xmlns="http://www.w3.org/2000/svg" xmlns:xlink="http://www.w3.org/1999/xlink" viewBox="0 0 24 24" width="24px" height="24px">
<g id="surface27287457">
<path style=" stroke:none;fill-rule:nonzero;fill:rgb(100%,100%,100%);fill-opacity:1;" d="M 13 12 C 13 15.3125 10.3125 18 7 18 C 3.6875 18 1 15.3125 1 12 C 1 8.6875 3.6875 6 7 6 C 10.3125 6 13 8.6875 13 12 Z M 13 12 "/>
<path style=" stroke:none;fill-rule:nonzero;fill:rgb(100%,100%,100%);fill-opacity:1;" d="M 20 12 C 20 15.039062 18.65625 17.5 17 17.5 C 15.34375 17.5 14 15.039062 14 12 C 14 8.960938 15.34375 6.5 17 6.5 C 18.65625 6.5 20 8.960938 20 12 Z M 20 12 "/>
<path style=" stroke:none;fill-rule:nonzero;fill:rgb(100%,100%,100%);fill-opacity:1;" d="M 23 12 C 23 14.761719 22.550781 17 22 17 C 21.449219 17 21 14.761719 21 12 C 21 9.238281 21.449219 7 22 7 C 22.550781 7 23 9.238281 23 12 Z M 23 12 "/>
</g>
</svg>
